PathFileType	3	(X/Y/Z)	D:\minhoCalibration\240510\subject5_KPNP\preferred\preferred19.trc
DataRate	CameraRate	NumFrames	NumMarkers	Units	OrigDataRate	OrigDataStartFrame	OrigNumFrames
200.0	200.0	24	10	mm	200.0	250	121	
Frame#	Time	Left_Ankle_Outer1			Left_Ankle_Inner1			Left_Knee_Outer1			Left_Knee_Inner1			Left_Wrist1			Right_Wrist1			Right_Knee_Inner1			Right_Knee_Outer1			Right_Ankle_Inner1			Right_Ankle_Outer1			
		X1	Y1	Z1	X2	Y2	Z2	X3	Y3	Z3	X4	Y4	Z4	X5	Y5	Z5	X6	Y6	Z6	X7	Y7	Z7	X8	Y8	Z8	X9	Y9	Z9	X10	Y10	Z10	
250	1.24	-202.20067	74.50914	-704.4455	-245.54071	86.823303	-681.60199	-53.621365	522.8443	-607.79956	-136.15009	513.1958	-564.93243	5.9875331	992.73181	-725.20599	-274.87823	1141.6356	-630.18561	-350.37711	828.56927	-231.26297	-409.85834	891.90497	-254.03854	-535.21014	550.58777	59.151901	-618.53418	577.0235	16.486795
251	1.245	-201.79974	74.958572	-704.83264	-245.50998	86.580521	-681.35089	-53.510994	523.15167	-609.10388	-136.27968	513.60864	-566.29559	7.0014949	993.92242	-723.13812	-276.38681	1139.8505	-630.50226	-352.41455	820.48309	-235.52428	-412.10733	883.37958	-258.15894	-538.43628	533.47937	45.59787	-621.53308	559.84198	1.9123709
252	1.25	-201.82817	74.955795	-704.90698	-245.74266	86.538521	-681.31488	-53.92189	523.12	-610.34454	-136.49699	513.57178	-567.60736	8.0635862	995.03107	-721.11041	-277.74872	1138.1193	-631.40887	-354.29016	812.3205	-240.06982	-414.31659	874.76904	-262.54407	-541.58496	516.90204	31.710714	-624.03296	542.65143	-13.114348
253	1.255	-202.0179	74.593315	-704.83252	-245.4576	86.740234	-681.70514	-53.663914	523.2406	-611.54877	-136.68919	513.8089	-568.58124	9.2666416	996.11407	-719.17621	-278.81705	1136.9707	-631.7644	-356.10434	804.07056	-244.8611	-416.53699	866.02533	-267.31329	-544.35138	499.73755	16.745275	-626.28223	525.77271	-28.624336
254	1.26	-201.91898	74.794304	-704.97308	-245.91885	86.726852	-681.33441	-54.353916	523.09003	-612.47046	-137.14586	513.92041	-569.71912	10.330385	997.07202	-717.19983	-279.66534	1134.5597	-633.71503	-357.8425	795.62457	-250.2197	-418.66083	857.18298	-272.4104	-546.75189	482.8161	1.5464435	-628.13342	508.9476	-44.494469
255	1.265	-202.00993	74.36055	-704.99207	-245.33684	86.782181	-681.53467	-53.856453	523.37042	-613.59314	-137.65953	513.90582	-570.93109	11.321235	997.97528	-715.3241	-280.94427	1132.9852	-634.12067	-359.47839	786.98248	-255.80325	-420.64764	848.0777	-277.71588	-548.75555	465.9693	-14.018476	-629.62537	492.39511	-60.74157
256	1.27	-201.83513	74.38018	-705.11255	-245.23045	86.422707	-682.13324	-54.514183	523.29797	-614.22003	-138.26242	513.79126	-571.82391	12.337025	998.73566	-713.53149	-281.84192	1131.0964	-634.67902	-360.96765	778.11462	-261.72952	-422.53146	839.0177	-283.17416	-550.28455	449.37085	-29.877186	-630.81775	476.02109	-77.159874
257	1.275	-201.2897	74.603416	-705.69232	-245.17674	86.445137	-682.26495	-54.838367	523.3399	-614.94373	-138.86562	513.64343	-572.82312	13.258274	999.38916	-711.81201	-282.42889	1129.5931	-636.59979	-362.4895	769.07477	-268.03128	-424.31577	829.84277	-288.8475	-551.25525	432.89932	-46.504726	-631.60992	460.00986	-93.894325
258	1.28	-201.71971	74.193954	-705.30078	-245.26053	86.581589	-681.74457	-55.133732	523.19659	-615.54871	-139.63142	513.72504	-573.92596	14.15323	999.99561	-710.16565	-283.52112	1127.9222	-635.89264	-363.97897	759.81732	-274.41583	-425.99033	820.54376	-294.64899	-552.35028	416.76553	-62.92197	-632.08398	444.20813	-110.87896
259	1.285	-201.7184	74.106796	-705.31207	-245.23277	86.526604	-681.88513	-55.719166	523.04791	-616.13647	-140.20273	513.77393	-575.07281	14.996059	1000.5033	-708.54059	-283.05179	1125.9331	-638.78064	-365.39682	750.54773	-281.24362	-427.73404	811.17108	-300.53796	-552.57996	400.71338	-80.653885	-632.2746	428.77634	-128.10481
260	1.29	-201.5329	74.320969	-705.4704	-245.18546	86.335838	-682.53674	-55.859913	523.21826	-616.66003	-140.75887	514.05969	-576.06006	15.294378	1000.7148	-706.81427	-284.39334	1124.9434	-637.12933	-366.89825	741.36365	-288.46567	-429.2731	801.93506	-306.80078	-552.88568	385.14471	-97.416031	-632.08978	413.57919	-145.56758
261	1.295	-201.07446	74.389893	-706.13422	-245.19411	86.537613	-681.21698	-55.992527	523.22809	-617.38232	-141.40471	514.17157	-577.02057	16.064344	1001.1084	-705.34967	-284.32141	1123.1769	-638.89392	-368.26999	732.16583	-295.66718	-431.15775	792.46002	-313.14175	-552.50507	369.85001	-115.00532	-631.55151	398.87088	-163.2178
262	1.3	-201.45302	74.130241	-705.61908	-244.93338	86.19841	-681.43079	-56.298378	523.2326	-617.89636	-141.85767	514.19684	-578.06506	16.720274	1001.4926	-703.88177	-285.43112	1121.8855	-637.52484	-369.39127	722.98267	-302.65491	-432.7132	783.34918	-319.88358	-551.72742	354.91959	-133.04996	-630.6994	384.31299	-181.1371
263	1.305	-201.59656	73.846878	-705.58936	-245.05112	86.59343	-681.29657	-56.621052	523.27771	-618.52051	-142.20322	514.39337	-579.00128	17.340675	1001.8636	-702.35333	-285.59091	1120.1914	-638.30316	-370.23404	714.17706	-309.47949	-434.27649	773.97839	-326.71329	-550.45142	340.35275	-151.29726	-629.56189	370.20724	-199.38635
264	1.31	-201.56741	73.865631	-705.646	-244.53358	86.339943	-681.57825	-56.561325	523.5094	-619.24609	-142.68471	514.28821	-579.84692	17.883211	1002.234	-700.86371	-286.58688	1118.9474	-637.88293	-371.19098	705.48871	-317.41061	-435.5278	764.66711	-333.68088	-548.8266	326.1821	-169.74054	-627.83344	356.31516	-217.69635
265	1.315	-201.46347	73.862144	-705.7865	-244.66092	87.069725	-681.32751	-56.786076	523.57788	-619.68176	-143.11409	514.13202	-580.85028	18.25597	1002.6035	-699.25372	-287.0766	1117.5813	-638.02167	-372.07669	697.31702	-325.67776	-437.04544	755.39966	-342.16782	-546.82684	312.38373	-188.4771	-625.71588	342.86691	-236.32443
266	1.32	-201.34616	74.07679	-705.91589	-243.72786	85.83358	-682.8443	-57.049236	523.61005	-620.10126	-143.44983	514.27454	-581.72778	18.720285	1003.1245	-697.68195	-287.7319	1116.6497	-637.93359	-372.45264	689.0683	-333.15302	-438.31445	746.63818	-350.01657	-544.33026	299.02411	-207.46727	-623.19415	329.73285	-255.2569
267	1.325	-201.42638	73.860435	-705.97034	-244.61441	86.475174	-681.3689	-57.025711	523.85016	-620.77625	-143.52655	514.49707	-581.43842	19.116789	1003.6324	-696.01477	-287.98663	1115.1083	-639.12225	-373.03394	681.31403	-341.62601	-439.49628	738.08148	-357.87677	-541.33484	286.10205	-226.24231	-620.21698	316.91296	-274.3259
268	1.33	-201.4075	73.86541	-705.97491	-244.70929	85.815269	-681.89429	-57.226543	523.96887	-621.22131	-144.29712	514.49347	-582.61652	19.473585	1004.2446	-694.35876	-288.97723	1113.2854	-638.66553	-373.22998	673.47424	-349.27045	-440.45465	729.61572	-365.97632	-538.44287	273.30374	-246.45375	-616.89319	304.4502	-294.22632
269	1.335	-201.44226	73.854317	-706.06335	-244.75584	86.441116	-682.7124	-57.522846	523.86426	-621.48895	-145.19937	514.49811	-584.15283	19.445858	1004.8145	-692.40442	-290.00516	1111.9453	-638.94659	-373.61551	665.87256	-357.08398	-441.24731	721.41101	-374.0126	-534.83136	261.38062	-265.95001	-613.15771	292.54269	-314.03543
270	1.34	-201.25096	73.791107	-706.16803	-244.35901	85.885963	-683.15131	-58.248917	523.9259	-621.69843	-145.62468	514.93634	-584.96759	19.971592	1005.6746	-690.77069	-290.74323	1109.6616	-639.45306	-373.79926	658.70557	-365.49377	-441.92593	713.2652	-382.29657	-530.83929	250.03093	-285.4939	-609.0097	281.01022	-334.05911
271	1.345	-201.24234	73.624725	-706.24438	-244.26691	85.733864	-683.30536	-58.390808	524.15271	-621.99072	-146.20828	514.98798	-585.72687	20.149405	1006.3653	-688.92139	-292.2298	1108.0348	-639.67676	-373.58862	651.51581	-373.40927	-442.16272	705.49377	-390.6665	-526.55365	238.93443	-305.44449	-604.56177	270.1416	-354.32016
272	1.35	-201.13383	73.577133	-706.42688	-244.66734	85.762932	-682.3905	-58.671219	524.24237	-622.23206	-146.7037	515.1842	-586.13965	20.21357	1007.0058	-686.99146	-293.18277	1106.0872	-640.82288	-373.27484	644.4411	-381.11658	-442.35516	697.75916	-399.09702	-522.17188	228.46869	-325.37155	-599.7525	259.72171	-374.90717
273	1.355	-200.93486	73.687607	-706.56958	-244.35094	85.94709	-683.21332	-59.116779	524.07709	-622.46893	-147.75496	514.76562	-588.02673	20.213068	1007.5569	-685.0733	-293.89346	1104.1088	-641.82013	-372.99783	637.70764	-389.8772	-442.06665	690.3374	-407.75055	-517.79321	218.269	-345.92456	-594.75592	250.13799	-395.61026
